#!OML:ASF F:\VICON\USERDATA\INSTALL\rory3\rory3.ASF
:FULLY-SPECIFIED
:DEGREES
1564
root -1.03286 16.3163 5.13854 19.1427 7.2313 -10.5774
lowerback -0.0359504 -4.73627 6.17773
upperback -5.64759 -5.84565 6.8596
thorax -5.78701 -3.02876 4.04135
lowerneck -18.144 1.62497 -1.31954
upperneck 34.1159 3.10145 -0.779439
head 14.8784 0.999726 0.451154
rclavicle 1.42603e-013 -7.33515e-014
rhumerus -46.4069 8.35996 -69.7186
rradius 80.0758
rwrist 1.51004
rhand -19.3546 -36.5749
rfingers 7.12502
rthumb 6.96287 -786.44
lclavicle 1.42603e-013 -7.33515e-014
lhumerus -39.7276 -21.2909 89.3613
lradius 76.2173
lwrist -2.46222
lhand -30.8645 -41.4464
lfingers 7.12502
lthumb -4.15229 -11.5071
rfemur -43.1741 13.4003 30.9564
rtibia 50.4293
rfoot -19.6345 -13.7433
rtoes -7.41784
lfemur -59.1991 7.93556 -15.0583
ltibia 118.206
lfoot -16.534 0.227485
ltoes 2.18322
1565
root -0.983557 16.2183 5.14054 19.2399 7.30809 -12.1857
lowerback -0.0589066 -4.70055 8.06663
upperback -5.7102 -5.69989 7.4513
thorax -5.99739 -3.02938 3.64932
lowerneck -17.8864 1.76757 -1.45381
upperneck 33.8442 3.32448 -0.729086
head 14.6887 1.09081 0.529334
rclavicle 1.00486e-013 -6.69904e-014
rhumerus -45.8799 7.83851 -68.1402
rradius 80.3039
rwrist 1.43114
rhand -20.8451 -34.7417
rfingers 7.12502
rthumb 5.52395 -784.65
lclavicle 1.00486e-013 -6.69904e-014
lhumerus -39.8234 -20.51 88.9039
lradius 77.9117
lwrist -3.34165
lhand -28.4065 -42.928
lfingers 7.12502
lthumb -1.7785 -12.9556
rfemur -43.9573 13.558 32.5318
rtibia 51.4414
rfoot -19.9335 -13.6413
rtoes -8.29147
lfemur -60.3268 9.60343 -13.0424
ltibia 118.398
lfoot -16.8552 0.277117
ltoes 0.304972
1566
root -0.937089 16.0864 5.11463 19.445 7.02768 -12.8987
lowerback -0.0600847 -4.60057 8.88272
upperback -5.63664 -5.52911 7.79699
thorax -5.97551 -2.97191 3.56332
lowerneck -18.2224 2.02181 -1.2697
upperneck 33.9314 3.73168 -0.954988
head 14.8152 1.25058 0.481372
rclavicle 1.27222e-014 2.38542e-015
rhumerus -45.1191 7.049 -66.3927
rradius 80.7983
rwrist 1.09606
rhand -21.401 -35.318
rfingers 7.12502
rthumb 4.9872 -785.239
lclavicle 1.27222e-014 2.38542e-015
lhumerus -39.6751 -19.8406 88.3643
lradius 79.8231
lwrist -4.24681
lhand -29.5958 -41.6134
lfingers 7.12502
lthumb -2.9271 -11.6537
rfemur -45.2037 13.8079 32.9986
rtibia 52.8295
rfoot -20.2455 -13.2279
rtoes -9.90246
lfemur -61.555 11.022 -12.186
ltibia 118.949
lfoot -16.1337 0.643993
ltoes 2.44492
1567
root -0.880501 16.0189 5.13828 19.5236 6.73825 -12.8038
lowerback -0.441573 -4.58632 9.06783
upperback -5.40104 -5.58191 7.87132
thorax -5.51646 -2.99541 3.4847
lowerneck -18.6948 2.30448 -0.942208
upperneck 34.0069 4.18289 -1.31457
head 14.9789 1.42627 0.364153
rclavicle -3.26007e-014 1.03368e-014
rhumerus -44.2501 6.06848 -64.5197
rradius 81.3028
rwrist 0.734417
rhand -20.9233 -36.8807
rfingers 7.12502
rthumb 5.44845 -786.791
lclavicle -3.26007e-014 1.03368e-014
lhumerus -39.5247 -19.24 87.7358
lradius 81.9064
lwrist -4.71337
lhand -29.9566 -42.4804
lfingers 7.12502
lthumb -3.27557 -12.5258
rfemur -45.7883 13.516 32.7254
rtibia 54.0246
rfoot -20.9476 -12.7358
rtoes -10.4998
lfemur -61.8715 11.324 -12.2739
ltibia 118.942
lfoot -18.2695 2.39963
ltoes -8.41541
1568
root -0.817753 16.0146 5.17404 18.7818 6.09536 -12.6235
lowerback 0.106116 -4.54455 9.12248
upperback -4.97877 -5.49204 7.77876
thorax -5.39078 -2.94486 3.36998
lowerneck -18.6836 2.52531 -0.771806
upperneck 33.6486 4.50479 -1.50024
head 14.822 1.56628 0.313603
rclavicle -1.04362e-014 1.59028e-014
rhumerus -43.592 5.12515 -62.6377
rradius 82.0914
rwrist 0.518432
rhand -20.4065 -38.1851
rfingers 7.12502
rthumb 5.94739 -788.082
lclavicle -1.04362e-014 1.59028e-014
lhumerus -39.6032 -18.7364 87.0685
lradius 84.2806
lwrist -4.78435
lhand -29.9458 -42.558
lfingers 7.12502
lthumb -3.26514 -12.6032
rfemur -45.0943 13.2813 32.5007
rtibia 54.9302
rfoot -21.7295 -12.4321
rtoes -10.8927
lfemur -60.8545 11.8394 -12.2505
ltibia 118.554
lfoot -16.9517 1.45429
ltoes -1.13031
1569
root -0.756681 15.9712 5.17953 18.3992 5.97855 -12.4684
lowerback 0.47434 -4.58417 9.43886
upperback -4.78168 -5.50032 7.72874
thorax -5.43016 -2.95849 3.16987
lowerneck -18.6726 2.64267 -0.601919
upperneck 33.3235 4.69443 -1.7441
head 14.6849 1.64145 0.216184
rclavicle 4.88016e-014 -4.73108e-014
rhumerus -43.1862 4.32434 -60.7936
rradius 83.1833
rwrist 0.124766
rhand -20.1476 -40.2679
rfingers 7.12502
rthumb 6.19729 -790.157
lclavicle 4.88016e-014 -4.73108e-014
lhumerus -39.812 -18.4154 86.4958
lradius 86.8122
lwrist -4.62842
lhand -30.0561 -42.3024
lfingers 7.12502
lthumb -3.37166 -12.3493
rfemur -45.0782 12.7182 32.329
rtibia 55.7218
rfoot -22.2424 -12.1089
rtoes -10.9449
lfemur -61.045 12.0262 -12.0887
ltibia 118.84
lfoot -16.9956 1.3847
ltoes -2.31305
1570
root -0.692438 15.9409 5.19032 18.2115 5.87186 -12.0623
lowerback 0.662331 -4.57598 9.58659
upperback -4.67633 -5.4683 7.6381
thorax -5.44903 -2.94772 3.0035
lowerneck -18.9109 2.63254 -0.517141
upperneck 33.3126 4.76689 -2.0518
head 14.7495 1.63657 0.0922154
rclavicle 1.59028e-015 -3.65764e-014
rhumerus -42.5672 3.51839 -58.7678
rradius 83.4583
rwrist -0.288978
rhand -26.0718 -53.1837
rfingers 7.12502
rthumb 0.476386 -803.163
lclavicle 1.59028e-015 -3.65764e-014
lhumerus -39.9918 -18.2858 86.0801
lradius 89.26
lwrist -4.29734
lhand -29.9218 -42.2305
lfingers 7.12502
lthumb -3.24189 -12.2754
rfemur -45.1308 12.0628 31.8467
rtibia 56.2407
rfoot -22.61 -11.7449
rtoes -10.8729
lfemur -61.5685 11.9616 -12.2757
ltibia 119.332
lfoot -16.5706 1.54556
ltoes -1.77629
1571
root -0.632277 15.956 5.19997 17.9418 6.02106 -11.2554
lowerback 1.06279 -4.64135 9.34491
upperback -4.63539 -5.51338 7.48845
thorax -5.62404 -2.96418 3.01429
lowerneck -19.138 2.53307 -0.629164
upperneck 33.404 4.7388 -2.23777
head 14.848 1.57921 0.0338468
rclavicle -6.71892e-014 4.01545e-014
rhumerus -41.9214 2.90432 -56.5586
rradius 83.5339
rwrist -0.767721
rhand -27.0711 -52.5518
rfingers 7.12502
rthumb -0.488741 -802.531
lclavicle -6.71892e-014 4.01545e-014
lhumerus -40.157 -18.2836 85.7301
lradius 91.6491
lwrist -4.13907
lhand -29.5253 -42.106
lfingers 7.12502
lthumb -2.85905 -12.1454
rfemur -44.9124 11.2519 30.9793
rtibia 56.5462
rfoot -22.9645 -11.647
rtoes -10.8743
lfemur -62.0281 11.2898 -12.8174
ltibia 119.782
lfoot -16.0516 1.98524
ltoes -2.73974
1572
root -0.574731 15.9795 5.21753 17.4023 5.87086 -10.8534
lowerback 1.41645 -4.5509 9.33223
upperback -4.33577 -5.37381 7.38883
thorax -5.51049 -2.88762 2.91438
lowerneck -19.3337 2.40179 -0.878194
upperneck 33.327 4.64401 -2.25211
head 14.8503 1.50553 0.0568857
rclavicle -1.31198e-014 1.74931e-014
rhumerus -41.4797 2.55395 -54.4351
rradius 84.3101
rwrist -1.38287
rhand -25.0988 -44.0869
rfingers 7.12502
rthumb 1.41614 -794.062
lclavicle -1.31198e-014 1.74931e-014
lhumerus -40.1315 -18.3711 85.3056
lradius 94.0137
lwrist -4.35391
lhand -29.2513 -41.6611
lfingers 7.12502
lthumb -2.59442 -11.6971
rfemur -44.184 11.1859 30.4222
rtibia 56.5033
rfoot -23.1452 -11.8714
rtoes -10.8147
lfemur -61.9406 11.7455 -12.5945
ltibia 120.398
lfoot -16.2244 1.77036
ltoes -3.82972
1573
root -0.47972 16.0104 5.21478 17.4997 6.13286 -10.2928
lowerback 1.60832 -4.5161 9.88008
upperback -4.49776 -5.25763 7.2255
thorax -5.8649 -2.86317 2.47615
lowerneck -19.3013 2.26333 -1.23409
upperneck 33.2973 4.54699 -2.19139
head 14.8174 1.43025 0.125681
rclavicle 3.04141e-014 1.03368e-014
rhumerus -41.2446 2.30954 -52.2001
rradius 84.8808
rwrist -1.83502
rhand -22.6083 -34.4501
rfingers 7.12502
rthumb 3.82133 -784.396
lclavicle 3.04141e-014 1.03368e-014
lhumerus -40.4504 -18.6052 85.1583
lradius 96.2593
lwrist -4.43136
lhand -29.096 -41.2989
lfingers 7.12502
lthumb -2.44447 -11.3331
rfemur -44.0695 10.6196 29.552
rtibia 56.214
rfoot -23.2238 -11.9345
rtoes -11.0669
lfemur -62.8245 11.232 -12.8658
ltibia 121.274
lfoot -15.8833 1.92294
ltoes -2.67035
1574
root -0.401959 16.0559 5.23948 17.8516 5.73684 -9.7401
lowerback 1.27975 -4.25697 9.98664
upperback -4.67785 -4.94292 7.07039
thorax -5.88188 -2.72023 2.21346
lowerneck -18.975 2.13087 -1.61293
upperneck 33.2334 4.4595 -2.14605
head 14.703 1.35842 0.189612
rclavicle 5.09883e-014 -1.74931e-014
rhumerus -40.9517 2.06582 -49.9006
rradius 85.0763
rwrist -1.74851
rhand -23.5387 -38.2316
rfingers 7.12502
rthumb 2.92291 -788.191
lclavicle 5.09883e-014 -1.74931e-014
lhumerus -40.8901 -18.9182 85.0196
lradius 98.2527
lwrist -4.30448
lhand -29.1083 -41.3197
lfingers 7.12502
lthumb -2.45633 -11.3541
rfemur -44.0456 11.1795 28.4458
rtibia 55.6208
rfoot -22.8976 -12.3966
rtoes -11.1785
lfemur -63.858 12.0367 -13.0114
ltibia 122.2
lfoot -15.401 1.46797
ltoes -1.49104
1575
root -0.311055 16.1287 5.25635 17.8008 6.14359 -9.36597
lowerback 1.36121 -4.2997 10.6948
upperback -4.82969 -4.93853 6.95467
thorax -6.17575 -2.75949 1.7376
lowerneck -18.6246 2.02395 -1.95908
upperneck 33.2044 4.41193 -2.14708
head 14.6029 1.3003 0.235849
rclavicle 8.94531e-016 -3.18055e-014
rhumerus -40.6733 2.08002 -47.6113
rradius 85.3323
rwrist -1.20386
rhand -23.7978 -42.4632
rfingers 7.12502
rthumb 2.67268 -792.426
lclavicle 8.94531e-016 -3.18055e-014
lhumerus -41.455 -19.1996 84.8729
lradius 100.165
lwrist -4.35882
lhand -29.3869 -41.9024
lfingers 7.12502
lthumb -2.72533 -11.9401
rfemur -43.3833 11.081 27.7598
rtibia 54.8003
rfoot -22.4719 -13.1395
rtoes -12.0886
lfemur -64.5921 11.7511 -12.6661
ltibia 123.166
lfoot -14.8411 1.19971
ltoes -2.18976
1576
root -0.206018 16.2144 5.27022 17.7056 6.13628 -8.8933
lowerback 1.35953 -4.20727 11.3264
upperback -4.76955 -4.79942 6.72093
thorax -6.18588 -2.72199 1.14053
lowerneck -18.5641 1.92508 -2.20902
upperneck 33.2768 4.3474 -2.12104
head 14.6163 1.24465 0.277903
rclavicle -5.76476e-015 2.62396e-014
rhumerus -40.1738 1.84944 -45.4148
rradius 85.3687
rwrist -0.66391
rhand -24.0921 -45.634
rfingers 7.12502
rthumb 2.38836 -795.6
lclavicle -5.76476e-015 2.62396e-014
lhumerus -41.7344 -19.5982 84.6599
lradius 101.908
lwrist -4.20461
lhand -29.4833 -43.482
lfingers 7.12502
lthumb -2.8185 -13.5209
rfemur -42.543 11.3285 26.8309
rtibia 53.8499
rfoot -21.7971 -14.0513
rtoes -13.7161
lfemur -64.9254 11.8513 -12.5224
ltibia 124.164
lfoot -14.7594 1.2222
ltoes -3.57064
1577
root -0.127451 16.3029 5.27981 18.0195 5.11702 -7.73646
lowerback 1.28426 -3.81812 10.5254
upperback -4.83696 -4.34039 6.36042
thorax -6.1337 -2.47146 1.14221
lowerneck -18.457 1.77564 -2.47469
upperneck 33.5195 4.19288 -2.02534
head 14.6947 1.15432 0.335176
rclavicle -3.33958e-014 -3.97569e-015
rhumerus -39.8437 1.54374 -43.2689
rradius 85.2551
rwrist -0.241423
rhand -23.2398 -41.9959
rfingers 7.12502
rthumb 3.21152 -791.951
lclavicle -3.33958e-014 -3.97569e-015
lhumerus -42.0783 -20.0134 84.5483
lradius 103.454
lwrist -3.81534
lhand -29.1654 -45.937
lfingers 7.12502
lthumb -2.51141 -15.972
rfemur -42.2656 12.8045 24.8072
rtibia 52.7667
rfoot -20.6867 -15.137
rtoes -14.4841
lfemur -65.4931 13.3976 -13.194
ltibia 125.167
lfoot -14.8977 1.0346
ltoes -3.75934
